<?xml version="1.0" encoding="UTF-8"?>
<svg version="1.1" xmlns="http://www.w3.org/2000/svg" width="300" height="300">
<path d="M0 0 C3.08193978 1.6281946 5.26420667 3.03009062 7.375 5.8125 C8.25805234 8.90318318 8.12279902 11.8072254 8 15 C8.71285156 14.95359375 9.42570312 14.9071875 10.16015625 14.859375 C11.59681641 14.80523437 11.59681641 14.80523437 13.0625 14.75 C14.00222656 14.70359375 14.94195312 14.6571875 15.91015625 14.609375 C19.20460574 15.02586672 21.32941384 16.11454794 24.13256836 17.85058594 C27.39416017 19.85811297 30.83165798 21.52807398 34.25 23.25 C34.95640625 23.61351563 35.6628125 23.97703125 36.390625 24.3515625 C40.48956718 26.44125497 40.48956718 26.44125497 45 27 C46.54392561 26.23228653 48.06231665 25.41252363 49.5625 24.5625 C56.79916821 20.86001859 63.88441016 20.04767391 71.7734375 22.15234375 C80.14294548 25.33863012 86.28612791 31.13022363 90.03125 39.23046875 C92.84584234 46.80120093 92.71172768 53.76949612 90.24609375 61.40234375 C87.57703191 66.96637549 82.9599855 72.7379585 77.21484375 75.1875 C74.83148009 76.73441967 74.83148009 76.73441967 74.66992188 78.90844727 C74.65069562 81.47381722 74.77703495 84.00211519 74.9375 86.5625 C75.52400902 106.32530404 69.82677384 121.59579721 59 138 C59.3609375 138.49886719 59.721875 138.99773437 60.09375 139.51171875 C64.41341537 146.195201 65.09792658 152.15625427 64 160 C62.62528036 164.09858275 60.39309742 167.41035387 58 171 C57.34 170.67 56.68 170.34 56 170 C51.10100227 168.36700076 45.95306944 168.34897685 41 170 C41 172.64 41 175.28 41 178 C40.01 178 39.02 178 38 178 C37.505 180.97 37.505 180.97 37 184 C37.99 184 38.98 184 40 184 C40 185.32 40 186.64 40 188 C39.01 188 38.02 188 37 188 C37 189.65 37 191.3 37 193 C35.35 193 33.7 193 32 193 C32 191.35 32 189.7 32 188 C28.37 188 24.74 188 21 188 C21.95772361 183.21138193 22.78648397 181.4729764 25.5625 177.6875 C26.20316406 176.80449219 26.84382813 175.92148438 27.50390625 175.01171875 C27.99761719 174.34785156 28.49132812 173.68398437 29 173 C28.39542969 172.89558594 27.79085937 172.79117188 27.16796875 172.68359375 C23.66299545 171.57842199 22.15588873 168.85509589 20 166 C19.67 165.34 19.34 164.68 19 164 C18.4423999 164.07105957 17.8847998 164.14211914 17.31030273 164.21533203 C1.6943397 166.13704993 -11.92354893 166.32110038 -27 161 C-27.09925781 161.74121094 -27.19851562 162.48242188 -27.30078125 163.24609375 C-28.73837914 168.9081413 -33.54802891 172.85052288 -38 176.375 C-45.30712231 180.33302459 -52.57638125 181.17584462 -60.5 178.875 C-68.61399659 175.8672254 -74.31762484 170.83989551 -78 163 C-80.72325602 156.24632506 -80.63250292 149.2510376 -78.0234375 142.45703125 C-75.90926967 138.05819819 -73.47052439 134.29985226 -70.5 130.4375 C-68.41643682 127.43974793 -68.41643682 127.43974793 -68.1484375 123.9296875 C-68.96577812 121.5479745 -69.97208096 119.29873676 -71 117 C-77.75931478 97.67717623 -76.89657942 80.22690578 -70.0234375 61.1171875 C-68.84403082 58.07176492 -68.84403082 58.07176492 -69 55 C-69.7425 54.2575 -70.485 53.515 -71.25 52.75 C-76.34789619 47.65210381 -78.76465325 42.47136452 -79.25 35.3125 C-79.087877 27.36847277 -76.31776315 21.4740055 -70.90234375 15.7265625 C-64.87665977 10.25766657 -58.62854393 8.6248662 -50.66015625 8.71875 C-43.59376098 9.46585787 -38.04091317 13.21113249 -33 18 C-32.505 18.99 -32.505 18.99 -32 20 C-27.64343966 19.19583205 -23.52145801 17.96046311 -19.3046875 16.62109375 C-17 16 -17 16 -14 16 C-14.2475 14.96875 -14.495 13.9375 -14.75 12.875 C-15.05854752 8.09251345 -14.03776739 6.61248014 -11 3 C-7.61521405 -0.50150271 -4.75302838 -0.57364136 0 0 Z M32 168 C36 169 36 169 36 169 Z M30 170 C30 173 30 173 30 173 Z M31 178 C29.63823419 179.98075027 28.30406884 181.98079663 27 184 C28.65 184 30.3 184 32 184 C32 182.02 32 180.04 32 178 C31.67 178 31.34 178 31 178 Z " fill="#2DE5FC" transform="translate(99,55)"/>
<path d="M0 0 C6.6 0 13.2 0 20 0 C36.71416736 29.44877106 36.71416736 29.44877106 42.02734375 42.09375 C42.85036107 44.17245121 42.85036107 44.17245121 45 45 C45.23348145 44.10535034 45.23348145 44.10535034 45.47167969 43.19262695 C47.35327547 36.42924798 50.03571996 30.41396627 53.25 24.1875 C53.73509033 23.23278809 54.22018066 22.27807617 54.7199707 21.29443359 C58.37190166 14.13599452 62.13394717 7.04480737 66 0 C72.6 0 79.2 0 86 0 C84.59145276 3.52136809 83.20714513 6.62850859 81.41796875 9.9296875 C80.64706909 11.3542627 80.64706909 11.3542627 79.8605957 12.80761719 C79.30847412 13.81985352 78.75635254 14.83208984 78.1875 15.875 C77.61797607 16.92333008 77.04845215 17.97166016 76.46166992 19.05175781 C71.77569087 27.64689244 66.98496119 36.18094877 62.1394043 44.68701172 C61.36850464 46.04076904 61.36850464 46.04076904 60.58203125 47.421875 C60.13061768 48.21174805 59.6792041 49.00162109 59.21411133 49.81542969 C56.26325611 54.96398248 56.26325611 54.96398248 56.23046875 60.8203125 C57.28938746 63.8196863 59.00918685 66.2181473 60.75 68.875 C64.04091375 74.24368007 64.04091375 74.24368007 63.86328125 77.52734375 C63.06659043 79.80082731 62.10792797 81.86298538 61 84 C59.28344497 89.34039342 58.47925351 94.4381369 58 100 C54.69822579 98.34911289 53.73605667 94.77322241 52.1875 91.5625 C51.47278481 90.10280163 50.7579411 88.64316618 50.04296875 87.18359375 C49.69540527 86.46929199 49.3478418 85.75499023 48.98974609 85.01904297 C47.31148502 81.59545661 45.55882455 78.2095608 43.8125 74.8203125 C43 73 43 73 43 71 C39.8280745 73.66810334 38.45334798 76.87076384 36.70703125 80.58203125 C36.39730881 81.23266037 36.08758636 81.88328949 35.76847839 82.55363464 C34.77707843 84.63710822 33.7939148 86.72430631 32.8125 88.8125 C27.94643316 99.1564311 22.78550788 109.13438978 17 119 C10.73 119 4.46 119 -2 119 C-0.48709906 114.46129717 0.92129594 111.04485066 3.203125 106.94921875 C3.51792313 106.38124573 3.83272125 105.81327271 4.15705872 105.22808838 C4.83298995 104.01032032 5.51126365 102.79384999 6.19168091 101.57858276 C7.26269592 99.66481399 8.32629629 97.74708058 9.38842773 95.82836914 C12.61355683 90.01233341 15.86533164 84.21292676 19.1836853 78.44950867 C20.18462356 76.71079895 21.18074719 74.96932037 22.17675781 73.2277832 C23.41398641 71.06904035 24.66171228 68.91627287 25.92089844 66.77026367 C26.75089355 65.31970581 26.75089355 65.31970581 27.59765625 63.83984375 C28.08758057 62.99800537 28.57750488 62.15616699 29.08227539 61.28881836 C30.17711863 58.55826358 30.08921809 57.69528721 29 55 C28.14340529 53.22139087 27.23591402 51.46696253 26.296875 49.73046875 C25.73452148 48.68729492 25.17216797 47.64412109 24.59277344 46.56933594 C23.68060059 44.89532715 23.68060059 44.89532715 22.75 43.1875 C21.81849121 41.46515137 21.81849121 41.46515137 20.86816406 39.70800781 C16.07185642 30.86078321 11.14007765 22.0919548 6.08886719 13.38745117 C5.58000977 12.50162354 5.07115234 11.6157959 4.546875 10.703125 C3.87930176 9.55312012 3.87930176 9.55312012 3.19824219 8.37988281 C2 6 2 6 0 0 Z " fill="#FE0404" transform="translate(32,74)"/>
<path d="M0 0 C11.28746079 11.80052719 10.75 23.31697442 10.75 39.875 C-6.08 39.875 -22.91 39.875 -40.25 39.875 C-38.3611319 48.37490643 -37.0367686 54.22104319 -30.0546875 59.55078125 C-23.66022212 63.20035554 -17.49437232 63.95212378 -10.25 62.875 C-7.5179069 62.00058009 -4.99092853 60.99064569 -2.40625 59.75 C-0.25 58.875 -0.25 58.875 3.75 58.875 C7.74458346 65.16949514 7.74458346 65.16949514 7.765625 67.91015625 C6.14496282 71.04551423 3.60991404 71.68978692 0.4375 73.0625 C-0.71363281 73.57167969 -1.86476562 74.08085937 -3.05078125 74.60546875 C-12.87903735 78.50557038 -25.04879165 78.36735267 -34.7890625 74.19921875 C-44.60275484 68.91851764 -51.98282502 61.1212493 -55.55859375 50.46875 C-56.50491322 45.55002731 -56.64846618 40.75048118 -56.6875 35.75 C-56.69765137 34.81978027 -56.70780273 33.88956055 -56.71826172 32.93115234 C-56.58003761 21.96083024 -52.87319149 11.97552245 -45.36328125 3.828125 C-32.28445375 -8.19720166 -14.96279208 -9.78336405 0 0 Z " fill="#040505" transform="translate(149.25,140.125)"/>
<path d="M0 0 C0.66 0 1.32 0 2 0 C2.49628906 1.00417969 2.99257812 2.00835937 3.50390625 3.04296875 C4.1898088 4.42462584 4.87603045 5.80612454 5.5625 7.1875 C5.92166504 7.91275879 6.28083008 8.63801758 6.65087891 9.38525391 C8.37072549 12.83477478 10.11332233 16.254733 12.01953125 19.60546875 C17.20638906 28.74525819 17.20638906 28.74525819 18 33.9375 C19.54683888 43.91868141 24.85798693 53.15755483 32.7109375 59.4453125 C36.01888371 61.69200634 39.3351629 63.40079836 43 65 C43 65.66 43 66.32 43 67 C27.60364193 69.31658165 13.90051851 69.37278312 -1 64 C-1.09925781 64.74121094 -1.19851562 65.48242188 -1.30078125 66.24609375 C-2.73837914 71.9081413 -7.54802891 75.85052288 -12 79.375 C-19.30712231 83.33302459 -26.57638125 84.17584462 -34.5 81.875 C-42.61399659 78.8672254 -48.31762484 73.83989551 -52 66 C-54.7718003 59.12593525 -54.59145401 52.10215944 -51.91796875 45.2109375 C-48.70193662 38.46795775 -48.70193662 38.46795775 -45 36 C-45.185625 36.969375 -45.37125 37.93875 -45.5625 38.9375 C-45.706875 39.948125 -45.85125 40.95875 -46 42 C-44.97285339 43.2505313 -44.97285339 43.2505313 -42.77514648 43.11352539 C-41.81680908 43.10828857 -40.85847168 43.10305176 -39.87109375 43.09765625 C-38.83662109 43.09443359 -37.80214844 43.09121094 -36.73632812 43.08789062 C-35.64771484 43.07951172 -34.55910156 43.07113281 -33.4375 43.0625 C-32.34501953 43.05798828 -31.25253906 43.05347656 -30.12695312 43.04882812 C-27.41791505 43.03699826 -24.70898401 43.02051543 -22 43 C-16.17030949 32.01715097 -10.43145914 20.9996758 -4.91894531 9.85400391 C-3.28858446 6.56469458 -1.64325184 3.28288419 0 0 Z " fill="#2DE5FC" transform="translate(73,152)"/>
<path d="M0 0 C3.08193978 1.6281946 5.26420667 3.03009062 7.375 5.8125 C8.25805234 8.90318318 8.12279902 11.8072254 8 15 C8.99 15.33 9.98 15.66 11 16 C10.11957031 15.979375 9.23914063 15.95875 8.33203125 15.9375 C6.58986328 15.9684375 6.58986328 15.9684375 4.8125 16 C3.66394531 16 2.51539062 16 1.33203125 16 C-2.63501113 17.19057778 -3.68242205 18.71500567 -5.63549805 22.28125 C-6.08578369 23.1784375 -6.53606934 24.075625 -7 25 C-7.59143799 26.1446875 -8.18287598 27.289375 -8.79223633 28.46875 C-10.8383876 32.45985395 -12.82681264 36.4785699 -14.8125 40.5 C-15.51199484 41.90904037 -16.21186165 43.31789614 -16.91210938 44.7265625 C-18.6123693 48.14892833 -20.3075744 51.57375364 -22 55 C-22.99 55 -23.98 55 -25 55 C-25.85549438 53.32659546 -25.85549438 53.32659546 -26.72827148 51.61938477 C-28.83782452 47.49420497 -30.94989576 43.37031898 -33.06274414 39.24682617 C-33.9781497 37.45942 -34.89286504 35.67166016 -35.80688477 33.88354492 C-37.11815488 31.31857266 -38.4318738 28.75486807 -39.74609375 26.19140625 C-40.36175453 24.98515343 -40.36175453 24.98515343 -40.98985291 23.75453186 C-42.65658417 20.14576915 -42.65658417 20.14576915 -45 17 C-46.78071246 16.91273777 -48.5648314 16.89300959 -50.34765625 16.90234375 C-51.42724609 16.90556641 -52.50683594 16.90878906 -53.61914062 16.91210938 C-55.32360352 16.92467773 -55.32360352 16.92467773 -57.0625 16.9375 C-58.77276367 16.94426758 -58.77276367 16.94426758 -60.51757812 16.95117188 C-63.34510351 16.96300253 -66.1725264 16.9794859 -69 17 C-69.97095711 19.56378388 -70.11782419 20.69081853 -69.12646484 23.29223633 C-68.65934082 24.13036865 -68.1922168 24.96850098 -67.7109375 25.83203125 C-67.18749756 26.784729 -66.66405762 27.73742676 -66.12475586 28.71899414 C-65.54733643 29.73985107 -64.96991699 30.76070801 -64.375 31.8125 C-63.49823608 33.39502563 -63.49823608 33.39502563 -62.60375977 35.00952148 C-60.74927533 38.34739515 -58.87654128 41.6744838 -57 45 C-55.79288223 47.15099311 -54.58584896 49.30203365 -53.37890625 51.453125 C-51.18686701 55.34991371 -48.98735174 59.24228002 -46.77734375 63.12890625 C-46.30409668 63.96824707 -45.83084961 64.80758789 -45.34326172 65.67236328 C-44.49520203 67.14190183 -43.61976711 68.59627757 -42.70751953 70.02685547 C-39.94948105 74.4087968 -39.94948105 74.4087968 -40.19702148 77.30566406 C-41.17383086 80.58327678 -42.61130223 83.2831493 -44.28125 86.26953125 C-44.61108887 86.8637085 -44.94092773 87.45788574 -45.28076172 88.07006836 C-46.34742938 89.98786981 -47.42353507 91.90018361 -48.5 93.8125 C-49.23169702 95.12362009 -49.96281579 96.43506305 -50.69335938 97.74682617 C-52.46982937 100.93288971 -54.25387346 104.11462082 -56.04150391 107.29443359 C-57.38458313 109.68433463 -58.723359 112.07664059 -60.0625 114.46875 C-62.033183 117.98401221 -64.01247827 121.4942325 -66 125 C-68.81629645 122.58488538 -69.85063588 120.29108972 -71.0625 116.8125 C-71.38347656 115.91144531 -71.70445313 115.01039063 -72.03515625 114.08203125 C-77.7468884 95.83686256 -76.45346879 78.99490455 -70.0234375 61.1171875 C-68.84403082 58.07176492 -68.84403082 58.07176492 -69 55 C-69.7425 54.2575 -70.485 53.515 -71.25 52.75 C-76.34789619 47.65210381 -78.76465325 42.47136452 -79.25 35.3125 C-79.087877 27.36847277 -76.31776315 21.4740055 -70.90234375 15.7265625 C-64.87665977 10.25766657 -58.62854393 8.6248662 -50.66015625 8.71875 C-43.59376098 9.46585787 -38.04091317 13.21113249 -33 18 C-32.505 18.99 -32.505 18.99 -32 20 C-27.64343966 19.19583205 -23.52145801 17.96046311 -19.3046875 16.62109375 C-17 16 -17 16 -14 16 C-14.2475 14.96875 -14.495 13.9375 -14.75 12.875 C-15.05854752 8.09251345 -14.03776739 6.61248014 -11 3 C-7.61521405 -0.50150271 -4.75302838 -0.57364136 0 0 Z " fill="#2CE5FC" transform="translate(99,55)"/>
<path d="M0 0 C3.749431 -0.11171489 5.26577735 -0.01291926 8.47265625 2.125 C8.01029798 8.05089179 6.22576289 11.98668818 3.22265625 17.0625 C2.31606229 18.64228569 1.41120937 20.22307139 0.5078125 21.8046875 C0.02070801 22.65256836 -0.46639648 23.50044922 -0.96826172 24.37402344 C-3.83694709 29.4357752 -6.58113038 34.56524671 -9.33984375 39.6875 C-10.40831315 41.66826068 -11.47730362 43.6487404 -12.546875 45.62890625 C-13.04541992 46.55525879 -13.54396484 47.48161133 -14.05761719 48.43603516 C-15.85855074 51.73096574 -17.73504852 54.98009111 -19.63891602 58.21655273 C-21.19148922 61.55166258 -20.62937397 63.69646155 -19.52734375 67.125 C-18.00295953 70.21845723 -16.3325257 73.18741609 -14.52734375 76.125 C-14.13804688 75.68929687 -13.74875 75.25359375 -13.34765625 74.8046875 C-6.51764814 67.53403371 1.82710778 61.66193928 12.03125 60.9453125 C22.59374219 60.68161644 30.96894725 62.59148593 39.47265625 69.125 C48.42842752 78.2341892 50.65138045 89.01760465 50.66015625 101.3125 C50.67240234 102.22708984 50.68464844 103.14167969 50.69726562 104.08398438 C50.69919922 104.95732422 50.70113281 105.83066406 50.703125 106.73046875 C50.70723389 107.52606201 50.71134277 108.32165527 50.71557617 109.14135742 C50.47265625 111.125 50.47265625 111.125 48.47265625 113.125 C46.37191772 113.36550903 46.37191772 113.36550903 43.74755859 113.35205078 C42.76669281 113.35189972 41.78582703 113.35174866 40.77523804 113.35159302 C39.71374542 113.34127045 38.65225281 113.33094788 37.55859375 113.3203125 C36.47381744 113.3174826 35.38904114 113.31465271 34.27139282 113.31173706 C30.79670312 113.30051578 27.32226843 113.27540762 23.84765625 113.25 C21.49609746 113.23997272 19.14453465 113.23084643 16.79296875 113.22265625 C11.01944381 113.20057011 5.24606824 113.16707345 -0.52734375 113.125 C0.39696738 115.0734411 1.33277182 117.01643292 2.2734375 118.95703125 C2.79333252 120.03960205 3.31322754 121.12217285 3.84887695 122.23754883 C6.51224719 126.97363059 9.35910651 128.42048342 14.47265625 130.125 C21.78263451 130.80370422 27.64528833 130.19972608 34.31640625 127.09765625 C36.3636785 126.17415844 38.28273982 125.59782287 40.47265625 125.125 C44.39460093 130.41422815 47.18867608 134.45146591 47.47265625 141.125 C45.57810801 142.08587136 43.68196044 143.04358969 41.78515625 144 C40.72941406 144.53367188 39.67367187 145.06734375 38.5859375 145.6171875 C28.61098972 150.44821616 16.6157023 152.27032474 5.78515625 149 C-6.32058409 144.21091591 -14.73507532 137.03038305 -19.96484375 125 C-21.42303428 121.4955748 -22.47962875 118.56791964 -22.88671875 114.7890625 C-23.75445814 109.82601645 -25.92196489 106.00416257 -28.33984375 101.625 C-28.77876953 100.80902344 -29.21769531 99.99304688 -29.66992188 99.15234375 C-31.66237631 95.46349052 -33.70560054 91.82025866 -35.8515625 88.21875 C-37.52734375 85.125 -37.52734375 85.125 -37.52734375 82.125 C-38.18734375 82.125 -38.84734375 82.125 -39.52734375 82.125 C-39.9140625 83.38957031 -39.9140625 83.38957031 -40.30859375 84.6796875 C-41.61207685 88.36453396 -43.24674117 91.78130511 -45.02734375 95.25 C-45.73864984 96.65085457 -46.44956764 98.05190635 -47.16015625 99.453125 C-47.53946289 100.19884766 -47.91876953 100.94457031 -48.30957031 101.71289062 C-49.62416364 104.31677636 -50.91738413 106.93054855 -52.20703125 109.546875 C-52.65498047 110.4529248 -53.10292969 111.35897461 -53.56445312 112.29248047 C-54.44606876 114.07662598 -55.32504123 115.86208039 -56.20117188 117.64892578 C-56.80735352 118.87071533 -56.80735352 118.87071533 -57.42578125 120.1171875 C-57.78333496 120.84276855 -58.14088867 121.56834961 -58.50927734 122.31591797 C-59.52734375 124.125 -59.52734375 124.125 -61.52734375 126.125 C-63.83398438 126.38378906 -63.83398438 126.38378906 -66.68359375 126.390625 C-68.21693359 126.39449219 -68.21693359 126.39449219 -69.78125 126.3984375 C-70.85246094 126.39070313 -71.92367187 126.38296875 -73.02734375 126.375 C-74.63416016 126.38660156 -74.63416016 126.38660156 -76.2734375 126.3984375 C-77.29566406 126.39585937 -78.31789063 126.39328125 -79.37109375 126.390625 C-80.31146484 126.38836914 -81.25183594 126.38611328 -82.22070312 126.38378906 C-84.52734375 126.125 -84.52734375 126.125 -86.52734375 124.125 C-85.71885755 116.84862422 -80.69600109 109.73967094 -77.08984375 103.5625 C-72.10746758 94.94329678 -67.27705688 86.2526243 -62.53735352 77.49780273 C-62.06998779 76.63485596 -61.60262207 75.77190918 -61.12109375 74.8828125 C-60.6828125 74.06586914 -60.24453125 73.24892578 -59.79296875 72.40722656 C-58.98759057 70.95493582 -58.14695559 69.5212512 -57.26171875 68.11621094 C-55.03621674 64.67719001 -55.03621674 64.67719001 -54.77905273 60.70751953 C-55.54620326 58.05991161 -56.52294083 56.00497439 -57.90625 53.625 C-58.40817871 52.75141846 -58.91010742 51.87783691 -59.42724609 50.9777832 C-59.97590332 50.03636475 -60.52456055 49.09494629 -61.08984375 48.125 C-62.26146555 46.07742273 -63.43198303 44.02921329 -64.6015625 41.98046875 C-65.22981934 40.88395996 -65.85807617 39.78745117 -66.50537109 38.65771484 C-69.79590623 32.91126656 -73.07304401 27.15784448 -76.30929565 21.38061523 C-77.03664517 20.08760358 -77.76867282 18.79721212 -78.50540161 17.50952148 C-79.54242662 15.69614314 -80.56377553 13.87474765 -81.58203125 12.05078125 C-82.17483887 11.00317627 -82.76764648 9.95557129 -83.37841797 8.8762207 C-84.52734375 6.125 -84.52734375 6.125 -84.27392578 3.81713867 C-83.52734375 2.125 -83.52734375 2.125 -82.52734375 1.125 C-78.62182435 0.70521207 -74.70206382 0.66016375 -70.77734375 0.5625 C-69.12992188 0.4687207 -69.12992188 0.4687207 -67.44921875 0.37304688 C-59.67327855 0.21733933 -59.67327855 0.21733933 -56.9387207 2.38330078 C-55.52907388 4.54727665 -54.55965792 6.75511296 -53.52734375 9.125 C-52.57670628 10.97756595 -51.59658168 12.81319023 -50.61795044 14.65110779 C-48.77867615 18.12272305 -47.0022144 21.62646904 -45.21484375 25.125 C-44.46711879 26.58219648 -43.71907455 28.03922917 -42.97070312 29.49609375 C-41.15256182 33.03718409 -39.33876118 36.58046573 -37.52734375 40.125 C-34.68359947 36.66492884 -32.78328682 32.84470315 -30.83984375 28.83984375 C-30.13420711 27.40815752 -29.42847506 25.97651831 -28.72265625 24.54492188 C-27.62134682 22.29875257 -26.5220385 20.05162987 -25.42480469 17.8034668 C-24.35997548 15.6255152 -23.2877965 13.45130206 -22.21484375 11.27734375 C-21.8897583 10.60541489 -21.56467285 9.93348602 -21.22973633 9.24119568 C-18.20870149 3.13409691 -18.20870149 3.13409691 -15.52734375 1.125 C-12.671875 0.61328125 -12.671875 0.61328125 -9.33984375 0.4375 C-8.18355469 0.375625 -7.02726562 0.31375 -5.8359375 0.25 C-3.89022902 0.17649035 -1.94471947 0.09618396 0 0 Z M-80.52734375 4.125 C-79.19412337 8.50482129 -77.47623921 12.31761852 -75.25390625 16.31640625 C-74.93363968 16.89527084 -74.61337311 17.47413544 -74.28340149 18.07054138 C-73.59840164 19.30654245 -72.91100714 20.54121896 -72.22140503 21.7746582 C-71.14155372 23.70680631 -70.0693042 25.64301907 -68.99829102 27.58007812 C-65.65838531 33.60571745 -62.27351736 39.59735766 -58.765625 45.52734375 C-58.20472168 46.48116943 -57.64381836 47.43499512 -57.06591797 48.41772461 C-56.02202924 50.18284845 -54.96560213 51.94063502 -53.89501953 53.68969727 C-53.43208496 54.47272217 -52.96915039 55.25574707 -52.4921875 56.0625 C-51.88298462 57.06603516 -51.88298462 57.06603516 -51.26147461 58.08984375 C-50.27151824 60.83419901 -50.67819112 62.35479609 -51.52734375 65.125 C-52.62792969 67.4230957 -52.62792969 67.4230957 -54.01171875 69.80078125 C-54.52863281 70.69974121 -55.04554687 71.59870117 -55.578125 72.52490234 C-56.13886719 73.48605957 -56.69960938 74.4472168 -57.27734375 75.4375 C-58.46154581 77.49760095 -59.64377455 79.55883724 -60.82421875 81.62109375 C-61.43458984 82.6869873 -62.04496094 83.75288086 -62.67382812 84.85107422 C-66.25190401 91.17114766 -69.68168087 97.57141311 -73.12402344 103.96606445 C-73.62836914 104.90281006 -74.13271484 105.83955566 -74.65234375 106.8046875 C-75.131875 107.69768555 -75.61140625 108.59068359 -76.10546875 109.51074219 C-77.90446448 112.81837376 -79.76536992 116.0893717 -81.64453125 119.35205078 C-82.67592168 121.09329145 -82.67592168 121.09329145 -82.52734375 123.125 C-76.25734375 123.125 -69.98734375 123.125 -63.52734375 123.125 C-56.33533782 110.28395395 -49.55127167 97.34660807 -43.36230469 83.98852539 C-42.88825195 82.9752417 -42.41419922 81.96195801 -41.92578125 80.91796875 C-41.50989746 80.0158667 -41.09401367 79.11376465 -40.66552734 78.18432617 C-39.52734375 76.125 -39.52734375 76.125 -37.52734375 75.125 C-37.30046875 75.91648437 -37.07359375 76.70796875 -36.83984375 77.5234375 C-35.14494779 82.17431273 -32.87078738 86.3978904 -30.52734375 90.75 C-29.63124465 92.42954573 -28.73540203 94.10922833 -27.83984375 95.7890625 C-27.44410156 96.52592285 -27.04835937 97.2627832 -26.640625 98.02197266 C-25.57141477 100.0417483 -24.54076531 102.07675472 -23.52734375 104.125 C-23.19734375 104.125 -22.86734375 104.125 -22.52734375 104.125 C-22.429375 103.21878906 -22.33140625 102.31257813 -22.23046875 101.37890625 C-21.40664087 94.66754981 -20.54684017 88.98748524 -17.13671875 83.08984375 C-16.23672902 80.18795379 -17.17889575 78.79371947 -18.52734375 76.125 C-20.11092152 73.40685892 -21.73433713 70.71831755 -23.3828125 68.0390625 C-24.93279501 64.09269065 -24.63749998 62.23886194 -23.52734375 58.125 C-21.81381904 54.34136143 -19.81438824 50.74267156 -17.77734375 47.125 C-17.20258301 46.08496826 -16.62782227 45.04493652 -16.03564453 43.97338867 C-14.21217422 40.68336474 -12.37178461 37.40330745 -10.52734375 34.125 C-9.61710449 32.50005615 -9.61710449 32.50005615 -8.68847656 30.84228516 C1.39779114 12.84431205 1.39779114 12.84431205 4.14013672 8.45776367 C5.63799022 6.28331301 5.63799022 6.28331301 5.47265625 4.125 C-1.12734375 4.125 -7.72734375 4.125 -14.52734375 4.125 C-16.55859619 7.99626737 -18.5863538 11.86903548 -20.60644531 15.74609375 C-21.29113036 17.05792729 -21.97758641 18.36883839 -22.66601562 19.67871094 C-31.22394338 33.84016145 -31.22394338 33.84016145 -35.52734375 49.125 C-38.66939367 46.47806098 -40.16780692 43.13324417 -41.90234375 39.5 C-45.64606919 31.83767713 -49.53202604 24.25442675 -53.46484375 16.6875 C-54.04476074 15.56714355 -54.62467773 14.44678711 -55.22216797 13.29248047 C-55.76502441 12.24850098 -56.30788086 11.20452148 -56.8671875 10.12890625 C-57.35566162 9.18861572 -57.84413574 8.2483252 -58.34741211 7.27954102 C-59.35106097 5.20776776 -59.35106097 5.20776776 -60.52734375 4.125 C-62.01606235 4.03830568 -63.50878875 4.01796506 -65 4.02734375 C-66.34868164 4.03217773 -66.34868164 4.03217773 -67.72460938 4.03710938 C-68.67013672 4.04548828 -69.61566406 4.05386719 -70.58984375 4.0625 C-71.53923828 4.06701172 -72.48863281 4.07152344 -73.46679688 4.07617188 C-75.8203744 4.0879989 -78.17382852 4.10447975 -80.52734375 4.125 Z M-10.77734375 76.375 C-20.42221893 88.4646764 -20.74445177 102.28774371 -19.52734375 117.125 C-17.83272372 127.0780683 -12.09607319 135.07501496 -4.03515625 140.9375 C5.45665163 146.93839982 15.38848254 148.50755345 26.47265625 147.125 C32.99507758 145.36034907 38.75120283 142.69175615 44.47265625 139.125 C43.80167953 134.93139551 41.61681685 131.72165648 39.47265625 128.125 C38.48265625 128.5271875 38.48265625 128.5271875 37.47265625 128.9375 C36.48265625 129.329375 35.49265625 129.72125 34.47265625 130.125 C33.29703125 130.66125 32.12140625 131.1975 30.91015625 131.75 C24.62800281 134.0451747 17.98198479 134.29317375 11.62109375 132.17578125 C5.12295765 129.13756717 1.45336552 125.83328084 -1.21484375 119.125 C-2.3111355 116.08723068 -2.88016766 113.36088046 -3.52734375 110.125 C13.30265625 110.125 30.13265625 110.125 47.47265625 110.125 C48.03007426 89.15294418 48.03007426 89.15294418 38.47265625 72.125 C23.1824351 59.32834539 2.49673876 61.9805985 -10.77734375 76.375 Z " fill="#F4F5F6" transform="translate(112.52734375,69.875)"/>
<path d="M0 0 C5.28 0 10.56 0 16 0 C16.01458252 1.44769775 16.02916504 2.89539551 16.04418945 4.38696289 C16.10230627 9.77506805 16.17953901 15.16276116 16.26245117 20.55053711 C16.29563748 22.87924495 16.32368888 25.20803202 16.34643555 27.53686523 C16.38009669 30.89080457 16.43241999 34.24402206 16.48828125 37.59765625 C16.49467117 38.63334244 16.5010611 39.66902863 16.50764465 40.73609924 C16.62512708 46.55549911 17.13888879 50.88157071 20 56 C23.70948774 57.85474387 27.95154094 57.45467309 32 57 C35.40546227 55.39711048 35.40546227 55.39711048 38 53 C38.70157227 52.52272461 39.40314453 52.04544922 40.12597656 51.55371094 C43.18217991 47.38905656 42.603492 42.92386614 42.609375 37.890625 C42.62591125 36.80867859 42.64244751 35.72673218 42.65948486 34.61199951 C42.70805101 31.15794242 42.72935566 27.70432589 42.75 24.25 C42.77815236 21.90752982 42.80807874 19.56508023 42.83984375 17.22265625 C42.9138128 11.48180708 42.96333519 5.74120373 43 0 C47.95 0 52.9 0 58 0 C58.0225528 9.10959489 58.04091611 18.21917137 58.05181217 27.3287878 C58.05704056 31.55831371 58.0641374 35.7878196 58.07543945 40.01733398 C58.08626991 44.09568543 58.09227717 48.17401757 58.09487724 52.25238228 C58.09673121 53.81177639 58.10035127 55.3711694 58.10573006 56.93055534 C58.11294262 59.10729162 58.11399085 61.28394714 58.11352539 63.46069336 C58.115746 64.70201523 58.11796661 65.9433371 58.12025452 67.22227478 C58 70 58 70 57 71 C55.16884117 71.09851171 53.33380067 71.12972629 51.5 71.125 C50.4996875 71.12757813 49.499375 71.13015625 48.46875 71.1328125 C46 71 46 71 45 70 C44.54540142 67.34536879 44.29756762 64.67810862 44 62 C43.59910156 62.38671875 43.19820313 62.7734375 42.78515625 63.171875 C35.13234375 70.1826148 28.4046614 72.70139438 17.953125 72.3125 C12.54315383 71.74001628 9.5084861 69.74113618 5.8125 65.9375 C-0.24317183 58.20142747 -0.42777456 49.10185405 -0.29296875 39.6484375 C-0.28872391 38.50839264 -0.28447906 37.36834778 -0.28010559 36.1937561 C-0.26344334 32.58725387 -0.22581395 28.98133057 -0.1875 25.375 C-0.17243709 22.91537271 -0.15875151 20.45573657 -0.14648438 17.99609375 C-0.11358057 11.99717608 -0.06188465 5.99868586 0 0 Z " fill="#2DE6FD" transform="translate(242,117)"/>
<path d="M0 0 C29.37 0 58.74 0 89 0 C89 3.96 89 7.92 89 12 C87.18884376 13.81115624 84.70122499 13.11995376 82.29098511 13.12442017 C81.47171539 13.12082489 80.65244568 13.11722961 79.80834961 13.11352539 C78.94988937 13.11367142 78.09142914 13.11381744 77.20695496 13.1139679 C74.35539262 13.11326847 71.50389475 13.1054747 68.65234375 13.09765625 C66.68079158 13.09579218 64.70923895 13.09436822 62.73768616 13.09336853 C57.53773733 13.08954251 52.33781625 13.07971152 47.13787842 13.06866455 C41.83606339 13.05845222 36.5342439 13.05387129 31.23242188 13.04882812 C20.82160237 13.03808933 10.41080349 13.02101191 0 13 C0 8.71 0 4.42 0 0 Z " fill="#2EE5FC" transform="translate(171,201)"/>
<path d="M0 0 C5.28 0 10.56 0 16 0 C16.0225528 9.10959489 16.04091611 18.21917137 16.05181217 27.3287878 C16.05704056 31.55831371 16.0641374 35.7878196 16.07543945 40.01733398 C16.08626991 44.09568543 16.09227717 48.17401757 16.09487724 52.25238228 C16.09673121 53.81177639 16.10035127 55.3711694 16.10573006 56.93055534 C16.11294262 59.10729162 16.11399085 61.28394714 16.11352539 63.46069336 C16.115746 64.70201523 16.11796661 65.9433371 16.12025452 67.22227478 C16 70 16 70 15 71 C12.66839945 71.09909302 10.33370058 71.12970504 8 71.125 C6.72125 71.12757813 5.4425 71.13015625 4.125 71.1328125 C1 71 1 71 0 70 C-0.09429342 67.82194281 -0.11742538 65.6407872 -0.11352539 63.46069336 C-0.11367142 62.77779739 -0.11381744 62.09490143 -0.1139679 61.39131165 C-0.11326876 59.12412386 -0.1054764 56.85701726 -0.09765625 54.58984375 C-0.09579207 53.02185613 -0.09436817 51.45386793 -0.09336853 49.88587952 C-0.08954334 45.75123497 -0.07971306 41.61662534 -0.06866455 37.48199463 C-0.05845044 33.26599602 -0.05387091 29.04999178 -0.04882812 24.83398438 C-0.03809078 16.55597174 -0.02049399 8.27799423 0 0 Z " fill="#2EE6FC" transform="translate(207,117)"/>
<path d="M0 0 C0 1.65 0 3.3 0 5 C2.97 5 5.94 5 9 5 C9.66 6.98 10.32 8.96 11 11 C11.309375 10.38125 11.61875 9.7625 11.9375 9.125 C12.625 7.75 13.3125 6.375 14 5 C15.98 5 17.96 5 20 5 C20.495 8.96 20.495 8.96 21 13 C21.66 13 22.32 13 23 13 C22.979375 12.05125 22.95875 11.1025 22.9375 10.125 C23 7 23 7 24 5 C27.0625 4.375 27.0625 4.375 30 4 C26.92482916 16.66970387 26.92482916 16.66970387 25 22 C23.02 22 21.04 22 19 22 C18.01 20.02 17.02 18.04 16 16 C15.34 17.98 14.68 19.96 14 22 C12.02 22 10.04 22 8 22 C7.75765625 21.14535156 7.5153125 20.29070312 7.265625 19.41015625 C6.76289063 17.75306641 6.76289063 17.75306641 6.25 16.0625 C5.92515625 14.96035156 5.6003125 13.85820312 5.265625 12.72265625 C4.30033464 9.84032961 4.30033464 9.84032961 1.859375 9.12109375 C1.24578125 9.08113281 0.6321875 9.04117188 0 9 C0.33 11.64 0.66 14.28 1 17 C1.99 17 2.98 17 4 17 C4 18.65 4 20.3 4 22 C2.72125 22.061875 1.4425 22.12375 0.125 22.1875 C-0.95394531 22.23970703 -0.95394531 22.23970703 -2.0546875 22.29296875 C-2.69664062 22.19628906 -3.33859375 22.09960938 -4 22 C-6.20914 18.68629 -6.22481553 17.6553979 -6.125 13.8125 C-6.10695312 12.91144531 -6.08890625 12.01039063 -6.0703125 11.08203125 C-6.04710937 10.39496094 -6.02390625 9.70789063 -6 9 C-6.99 9 -7.98 9 -9 9 C-9 10.98 -9 12.96 -9 15 C-12.3 15 -15.6 15 -19 15 C-18.67 15.66 -18.34 16.32 -18 17 C-15.36 17 -12.72 17 -10 17 C-10.33 18.65 -10.66 20.3 -11 22 C-19.92674617 22.6132879 -19.92674617 22.6132879 -23.625 20.5 C-25.55606246 16.98897734 -25.7428523 13.85976866 -25 10 C-23.4375 7.0625 -23.4375 7.0625 -21 5 C-17.5 4 -17.5 4 -14 4 C-11.5625 5.4375 -11.5625 5.4375 -10 7 C-9.67 6.34 -9.34 5.68 -9 5 C-8.01 5 -7.02 5 -6 5 C-6 3.68 -6 2.36 -6 1 C-3 0 -3 0 0 0 Z M-18 9 C-18.33 9.66 -18.66 10.32 -19 11 C-17.35 11 -15.7 11 -14 11 C-14.33 10.34 -14.66 9.68 -15 9 C-15.99 9 -16.98 9 -18 9 Z " fill="#2EE6FE" transform="translate(221,226)"/>
<path d="M0 0 C4.2536078 2.90018713 8.13546447 6.88461747 9.75 11.875 C9.75 14.515 9.75 17.155 9.75 19.875 C-2.46 19.875 -14.67 19.875 -27.25 19.875 C-26.07740312 10.49422495 -23.8125422 6.91136655 -16.93359375 1.07421875 C-12.0269303 -2.42078282 -5.43031838 -1.87972559 0 0 Z " fill="#31E6FD" transform="translate(136.25,148.125)"/>
<path d="M0 0 C0.33 0 0.66 0 1 0 C1.33 4.95 1.66 9.9 2 15 C1.01 15.495 1.01 15.495 0 16 C0 10.72 0 5.44 0 0 Z M-51 16 C-34.17 16 -17.34 16 0 16 C-0.33 16.66 -0.66 17.32 -1 18 C-16.18 18.33 -31.36 18.66 -47 19 C-44.12823351 27.61529946 -43.27110966 29.97897122 -36.4375 34.8125 C-28.35295834 37.60534166 -20.79325734 36.52386466 -13.15625 32.97265625 C-11.10897775 32.04915844 -9.18991643 31.47282287 -7 31 C-3.07805532 36.28922815 -0.28398017 40.32646591 0 47 C-1.89454824 47.96087136 -3.79069581 48.91858969 -5.6875 49.875 C-6.74324219 50.40867188 -7.79898438 50.94234375 -8.88671875 51.4921875 C-18.86166653 56.32321616 -30.85695395 58.14532474 -41.6875 54.875 C-53.23346756 50.30736448 -61.69509718 43.41528923 -67 32.0625 C-69 27.38486842 -69 27.38486842 -69 25 C-68.34 25 -67.68 25 -67 25 C-66.67 24.34 -66.34 23.68 -66 23 C-65.72027344 23.845625 -65.44054687 24.69125 -65.15234375 25.5625 C-61.24153375 36.62845757 -56.73812935 42.81866726 -46.625 48.7734375 C-37.49143174 53.041206 -26.88523827 53.63209185 -17.2109375 50.94921875 C-12.67261198 49.2127714 -8.32706328 47.20474177 -4 45 C-4.70554068 41.33118845 -6.27735506 38.29549466 -8 35 C-8.66 35.268125 -9.32 35.53625 -10 35.8125 C-10.99 36.204375 -11.98 36.59625 -13 37 C-14.175625 37.53625 -15.35125 38.0725 -16.5625 38.625 C-23.86737982 41.29382615 -31.37771427 41.13659997 -38.4375 37.875 C-44.79731862 34.23644992 -47.98635561 29.87111662 -50.51953125 23.02734375 C-51 21 -51 21 -51 16 Z " fill="#E8F4F6" transform="translate(160,164)"/>
<path d="M0 0 C3.02508145 1.73602105 5.41790069 3.83580137 7 7 C7.54399285 11.539219 7.62289461 14.9544269 5.25 18.9375 C2.14683856 21.78206465 0.31026074 22.82909642 -3.875 23.375 C-7.84487514 22.89861498 -9.89536536 21.46959574 -13 19 C-15.68121076 14.97818385 -15.81344335 11.72763609 -15 7 C-11.55662616 0.81728787 -6.92073953 -1.18127651 0 0 Z " fill="#2EE5FC" transform="translate(15,127)"/>
<path d="M0 0 C1.98 0 3.96 0 6 0 C6.33 4.29 6.66 8.58 7 13 C7.99 11.35 8.98 9.7 10 8 C13.6875 7.1875 13.6875 7.1875 17 7 C16.56671758 9.51303805 16.3219867 10.71516561 14.375 12.4375 C12.71350125 13.95894116 12.71350125 13.95894116 13.125 16.4375 C14.04041074 19.11834574 15.25336509 20.79772119 17 23 C17 23.66 17 24.32 17 25 C14.25 25.3125 14.25 25.3125 11 25 C8.625 22.5 8.625 22.5 7 20 C6.67 21.65 6.34 23.3 6 25 C4.02 25 2.04 25 0 25 C0 21.04 0 17.08 0 13 C-1.65 13.33 -3.3 13.66 -5 14 C-5.33 17.63 -5.66 21.26 -6 25 C-7.98 25 -9.96 25 -12 25 C-12 19.39 -12 13.78 -12 8 C-9.69 8 -7.38 8 -5 8 C-2.68963085 7.57145005 -2.68963085 7.57145005 -1 7 C-0.67 7.66 -0.34 8.32 0 9 C0 6.03 0 3.06 0 0 Z " fill="#2EE6FE" transform="translate(283,223)"/>
<path d="M0 0 C2.31 0 4.62 0 7 0 C8.92409498 2.24838066 10.105419 3.94219177 11.4375 6.5 C11.78748047 7.12003906 12.13746094 7.74007812 12.49804688 8.37890625 C13.35569369 9.9062225 14.18111194 11.45155713 15 13 C15.33 8.71 15.66 4.42 16 0 C17.98 0 19.96 0 22 0 C22 7.92 22 15.84 22 24 C20.02 24 18.04 24 16 24 C13.69921875 21.6640625 13.69921875 21.6640625 11.6875 18.625 C11.01074219 17.62726563 10.33398438 16.62953125 9.63671875 15.6015625 C8 13 8 13 7 11 C6.67 15.29 6.34 19.58 6 24 C4.02 24 2.04 24 0 24 C0 16.08 0 8.16 0 0 Z " fill="#2EE6FE" transform="translate(97,224)"/>
<path d="M0 0 C1.98 0 3.96 0 6 0 C8.046875 2.08203125 8.046875 2.08203125 9.75 4.8125 C10.32234375 5.70582031 10.8946875 6.59914062 11.484375 7.51953125 C12.23460937 8.74736328 12.23460937 8.74736328 13 10 C13.99 11.485 13.99 11.485 15 13 C15.33 8.71 15.66 4.42 16 0 C17.65 0 19.3 0 21 0 C21 7.92 21 15.84 21 24 C19.02 24 17.04 24 15 24 C12.6640625 21.375 12.6640625 21.375 10.625 18 C9.59246094 16.329375 9.59246094 16.329375 8.5390625 14.625 C8.03117188 13.75875 7.52328125 12.8925 7 12 C6.67 15.96 6.34 19.92 6 24 C4.02 24 2.04 24 0 24 C0 16.08 0 8.16 0 0 Z " fill="#2EE6FE" transform="translate(172,224)"/>
<path d="M0 0 C13.96551724 0 13.96551724 0 18 3 C20.92647067 6.41421579 21.53389612 9.5092359 21.35546875 14.00390625 C20.7587725 17.35458518 19.18036911 19.45623604 17 22 C13.49515188 24.35780692 10.3950049 24.2079001 6.25 24.125 C3.15625 24.063125 3.15625 24.063125 0 24 C0 16.08 0 8.16 0 0 Z M6 5 C6 9.62 6 14.24 6 19 C10.77602177 18.86502676 10.77602177 18.86502676 14.5 16.3125 C15.17790458 13.17719132 14.91526447 11.07267358 14 8 C12.2890789 6.02901574 12.2890789 6.02901574 10 5 C8.68 5 7.36 5 6 5 Z " fill="#2EE6FE" transform="translate(74,224)"/>
<path d="M0 0 C2.44782948 1.90386737 3.42307625 2.77307451 4.25 5.75 C4.11406285 9.55624015 3.78891744 11.96235144 1.625 15.125 C-1.59407966 17.32752819 -3.85989133 17.68292916 -7.75 17.75 C-11.76519063 16.23483372 -13.35368353 15.3444747 -15.75 11.75 C-16.21362482 7.57737663 -16.1994094 5.46285629 -13.9375 1.875 C-9.87742435 -2.06907349 -5.05099537 -2.29590699 0 0 Z " fill="#2DE6FC" transform="translate(220.75,88.25)"/>
<path d="M0 0 C2.5 1.625 2.5 1.625 4 4 C4.5625 6.875 4.5625 6.875 4 10 C1.57184111 13.41254763 -0.51521145 15.67680763 -4 18 C-1.36 18.33 1.28 18.66 4 19 C4 20.65 4 22.3 4 24 C-1.28 24 -6.56 24 -12 24 C-12 18 -12 18 -9.75 15.375 C-8.8425 14.59125 -7.935 13.8075 -7 13 C-4.72808584 10.97959252 -4.72808584 10.97959252 -3 9 C-3 8.01 -3 7.02 -3 6 C-6.04386724 5.91773332 -8.07175348 6.02391783 -11 7 C-11.1875 4.625 -11.1875 4.625 -11 2 C-7.31494085 -0.4567061 -4.27963474 -0.68887481 0 0 Z " fill="#2EE5FD" transform="translate(152,224)"/>
<path d="M0 0 C2.55770677 1.76393571 2.95793155 2.8617751 3.875 5.875 C4.02524355 9.63108863 3.28344384 11.06414363 1 14 C-2.75047482 16.50031654 -4.55856266 16.53603554 -9 16 C-12.69186542 13.40783917 -13.82883761 11.95850936 -14.625 7.5 C-13.84589045 3.13698651 -12.43408422 1.71532241 -9 -1 C-5.17456525 -2.27514492 -3.66576992 -1.52740413 0 0 Z " fill="#2DE5FC" transform="translate(197,132)"/>
<path d="M0 0 C0.33 0 0.66 0 1 0 C1.33 4.95 1.66 9.9 2 15 C1.01 15.495 1.01 15.495 0 16 C0 10.72 0 5.44 0 0 Z M-51 16 C-34.17 16 -17.34 16 0 16 C-0.33 16.66 -0.66 17.32 -1 18 C-16.18 18.33 -31.36 18.66 -47 19 C-43.81488908 28.8416853 -43.81488908 28.8416853 -36.32421875 34.62109375 C-32.47485065 36.21783516 -29.20952989 36.34185723 -25.125 36.1875 C-24.09246094 36.16719727 -24.09246094 36.16719727 -23.0390625 36.14648438 C-21.35902999 36.1114837 -19.6794065 36.05768954 -18 36 C-19 39 -19 39 -21 40 C-29.44169097 40.93499742 -35.98102831 39.89005564 -43 35 C-47.27874417 31.34866783 -49.71578041 26.41878024 -51 21 C-51 19.35 -51 17.7 -51 16 Z " fill="#E6EBEB" transform="translate(160,164)"/>
<path d="M0 0 C4.2536078 2.90018713 8.13546447 6.88461747 9.75 11.875 C9.75 14.515 9.75 17.155 9.75 19.875 C-2.46 19.875 -14.67 19.875 -27.25 19.875 C-26.07740312 10.49422495 -23.8125422 6.91136655 -16.93359375 1.07421875 C-12.0269303 -2.42078282 -5.43031838 -1.87972559 0 0 Z M-21.0625 8.75 C-23.72685455 12.07842427 -23.72685455 12.07842427 -24.25 17.875 C-14.02 17.875 -3.79 17.875 6.75 17.875 C6.75 10.7481742 5.20201083 8.61548269 0.625 3.5 C-7.65532553 -1.180184 -15.05734457 2.26716176 -21.0625 8.75 Z " fill="#E8F0F2" transform="translate(136.25,148.125)"/>
<path d="M0 0 C2.4375 1.5625 2.4375 1.5625 4 4 C4.57750587 8.54785873 4.52383446 10.85708845 2.625 15 C-0.85825274 17.65390685 -3.35348776 17.65963937 -7.6484375 17.40625 C-10 17 -10 17 -12.625 15.5625 C-14.67777705 11.73687004 -14.78802098 8.24439022 -14 4 C-10.14213247 -1.3211966 -6.12903666 -1.39785047 0 0 Z M-7 4 C-8.41577477 5.18424326 -8.41577477 5.18424326 -8.0625 8.5625 C-8.041875 9.696875 -8.02125 10.83125 -8 12 C-4.95086772 13.01111093 -4.95086772 13.01111093 -2 12 C-2 9.69 -2 7.38 -2 5 C-3.65614657 4.61781233 -5.32457024 4.28604898 -7 4 Z " fill="#2EE6FE" transform="translate(265,231)"/>
<path d="M0 0 C9.06387979 2.32407174 15.58164022 7.51440354 20.55859375 15.33203125 C25.618424 24.69751651 25.41948491 34.41636993 25.30078125 44.81640625 C25.29216064 45.57381104 25.28354004 46.33121582 25.2746582 47.11157227 C25 49 25 49 23 51 C20.93722534 51.24050903 20.93722534 51.24050903 18.36669922 51.22705078 C17.40585419 51.22689972 16.44500916 51.22674866 15.45504761 51.22659302 C14.41542877 51.21627045 13.37580994 51.20594788 12.3046875 51.1953125 C11.24210724 51.1924826 10.17952698 51.18965271 9.08474731 51.18673706 C5.68138501 51.17551639 2.27828314 51.15040837 -1.125 51.125 C-3.42838162 51.11497264 -5.73176736 51.10584637 -8.03515625 51.09765625 C-13.69019345 51.07557093 -19.34507813 51.04207489 -25 51 C-25 50.67 -25 50.34 -25 50 C-24.42814972 49.99413376 -23.85629944 49.98826752 -23.26712036 49.98222351 C-17.32993053 49.91842516 -11.39328962 49.83404189 -5.45654297 49.73754883 C-3.23916854 49.70423784 -1.02170806 49.67622537 1.19580078 49.65356445 C4.37830377 49.62013181 7.56001365 49.56782218 10.7421875 49.51171875 C11.73805878 49.50532883 12.73393005 49.4989389 13.75997925 49.49235535 C14.68078278 49.47256119 15.6015863 49.45276703 16.55029297 49.43237305 C17.3630368 49.42126999 18.17578064 49.41016693 19.01315308 49.39872742 C21.40183169 49.16278126 21.40183169 49.16278126 23 46 C23.50513782 33.50625797 20.61939813 19.46947639 12 10 C7.76374105 6.55168522 3.27156941 4.44968159 -2 3 C-1.34 2.67 -0.68 2.34 0 2 C0 1.34 0 0.68 0 0 Z " fill="#E3F0F2" transform="translate(138,132)"/>
<path d="M0 0 C0.66 0 1.32 0 2 0 C3.82671197 3.65342394 3.18470722 7.97839159 3.1875 12 C3.19974609 12.928125 3.21199219 13.85625 3.22460938 14.8125 C3.22654297 15.699375 3.22847656 16.58625 3.23046875 17.5 C3.23457764 18.3146875 3.23868652 19.129375 3.24291992 19.96875 C3 22 3 22 1 24 C-1.06277466 24.24050903 -1.06277466 24.24050903 -3.63330078 24.22705078 C-4.59414581 24.22689972 -5.55499084 24.22674866 -6.54495239 24.22659302 C-7.58457123 24.21627045 -8.62419006 24.20594788 -9.6953125 24.1953125 C-10.75789276 24.1924826 -11.82047302 24.18965271 -12.91525269 24.18673706 C-16.31861499 24.17551639 -19.72171686 24.15040837 -23.125 24.125 C-25.42838162 24.11497264 -27.73176736 24.10584637 -30.03515625 24.09765625 C-35.69019345 24.07557093 -41.34507813 24.04207489 -47 24 C-47 23.67 -47 23.34 -47 23 C-46.42814972 22.99413376 -45.85629944 22.98826752 -45.26712036 22.98222351 C-39.32993053 22.91842516 -33.39328962 22.83404189 -27.45654297 22.73754883 C-25.23916854 22.70423784 -23.02170806 22.67622537 -20.80419922 22.65356445 C-17.62169623 22.62013181 -14.43998635 22.56782218 -11.2578125 22.51171875 C-10.26194122 22.50532883 -9.26606995 22.4989389 -8.24002075 22.49235535 C-7.31921722 22.47256119 -6.3984137 22.45276703 -5.44970703 22.43237305 C-4.6369632 22.42126999 -3.82421936 22.41016693 -2.98684692 22.39872742 C-0.59816831 22.16278126 -0.59816831 22.16278126 1 19 C1.18414089 16.86854342 1.18414089 16.86854342 0.9765625 14.55078125 C0.925 13.70322266 0.8734375 12.85566406 0.8203125 11.98242188 C0.75585938 11.10134766 0.69140625 10.22027344 0.625 9.3125 C0.56828125 8.41982422 0.5115625 7.52714844 0.453125 6.60742188 C0.31173702 4.40412587 0.16034022 2.20198461 0 0 Z " fill="#DDFAFE" transform="translate(160,159)"/>
<path d="M0 0 C0.33 1.32 0.66 2.64 1 4 C2.38505737 3.95456055 2.38505737 3.95456055 3.7980957 3.90820312 C7.2253293 3.79599753 10.65257654 3.68422793 14.07983398 3.57275391 C15.56291261 3.52442614 17.04598559 3.4759248 18.52905273 3.42724609 C20.66128094 3.35729016 22.7935287 3.2879593 24.92578125 3.21875 C26.20880127 3.17685547 27.49182129 3.13496094 28.8137207 3.09179688 C30.87518547 3.03240597 32.93767989 3 35 3 C35 3.99 35 4.98 35 6 C22.79 6 10.58 6 -2 6 C-2 4.35 -2 2.7 -2 1 C-1.34 0.67 -0.68 0.34 0 0 Z " fill="#FBFCFC" transform="translate(111,162)"/>
<path d="M0 0 C1.7290774 -0.02725341 3.45828176 -0.04650987 5.1875 -0.0625 C6.15042969 -0.07410156 7.11335937 -0.08570313 8.10546875 -0.09765625 C10.85576513 -0.00486622 13.32479591 0.37888315 16 1 C16 1.66 16 2.32 16 3 C10.39 3 4.78 3 -1 3 C-0.67 2.01 -0.34 1.02 0 0 Z " fill="#E9FAFC" transform="translate(122,131)"/>
<path d="M0 0 C-1.11328125 1.48828125 -1.11328125 1.48828125 -3 3 C-5.91796875 3.29296875 -5.91796875 3.29296875 -9.1875 3.1875 C-10.27417969 3.16042969 -11.36085937 3.13335937 -12.48046875 3.10546875 C-13.31191406 3.07066406 -14.14335938 3.03585938 -15 3 C-15 2.01 -15 1.02 -15 0 C-13.06325815 -0.19517554 -11.12555991 -0.38087873 -9.1875 -0.5625 C-8.10855469 -0.66691406 -7.02960938 -0.77132812 -5.91796875 -0.87890625 C-3 -1 -3 -1 0 0 Z " fill="#DDE0E1" transform="translate(142,201)"/>
<path d="M0 0 C3.3 0 6.6 0 10 0 C10 1.32 10 2.64 10 4 C6.7 4 3.4 4 0 4 C0 2.68 0 1.36 0 0 Z " fill="#2EE6FE" transform="translate(159,237)"/>
<path d="M0 0 C1 3 1 3 -0.375 5.875 C-0.91125 6.90625 -1.4475 7.9375 -2 9 C-2.69907414 11.73572585 -2.69907414 11.73572585 -3 14 C-3.99 13.67 -4.98 13.34 -6 13 C-5.45128467 9.06754014 -4.78374039 5.56748077 -3 2 C-2.01 1.34 -1.02 0.68 0 0 Z " fill="#F2E3E3" transform="translate(97,151)"/>
<path d="M0 0 C0.33 0.66 0.66 1.32 1 2 C-3 3.33333333 -7 4.66666667 -11 6 C-10.06677104 2.77611813 -9.58700229 1.33984343 -6.625 -0.375 C-3.89364143 -1.02532347 -2.56267424 -1.09828896 0 0 Z " fill="#DDEDEF" transform="translate(122,133)"/>
<path d="M0 0 C1.60332791 -0.08121924 3.20784026 -0.13929134 4.8125 -0.1875 C6.15248047 -0.23970703 6.15248047 -0.23970703 7.51953125 -0.29296875 C10 0 10 0 13 3 C8.71 3 4.42 3 0 3 C0 2.01 0 1.02 0 0 Z " fill="#D4F8FD" transform="translate(123,217)"/>
<path d="M0 0 C0.33 0.66 0.66 1.32 1 2 C-0.43344 2.53190541 -1.87195367 3.05015258 -3.3125 3.5625 C-4.51326172 3.99755859 -4.51326172 3.99755859 -5.73828125 4.44140625 C-8 5 -8 5 -11 4 C-7.95841042 -0.56238437 -5.1474794 -0.11438843 0 0 Z " fill="#E1E6E6" transform="translate(130,147)"/>
<path d="M0 0 C0.66 0.33 1.32 0.66 2 1 C-0.46153846 4.81538462 -0.46153846 4.81538462 -3.1875 5.75 C-3.785625 5.8325 -4.38375 5.915 -5 6 C-5.33 5.01 -5.66 4.02 -6 3 C-4.03533587 1.93224776 -2.03144641 0.93446535 0 0 Z " fill="#E0E5E5" transform="translate(154,210)"/>
<path d="" fill="#2EE5FC" transform="translate(0,0)"/>
<path d="" fill="#2EE5FC" transform="translate(0,0)"/>
</svg>
